<?xml version="1.0" standalone="no"?>
<!DOCTYPE svg PUBLIC "-//W3C//DTD SVG 20010904//EN"
 "http://www.w3.org/TR/2001/REC-SVG-20010904/DTD/svg10.dtd">
<svg version="1.0" xmlns="http://www.w3.org/2000/svg"
 width="512.000000pt" height="512.000000pt" viewBox="0 0 512.000000 512.000000"
 preserveAspectRatio="xMidYMid meet">

<g transform="translate(0.000000,512.000000) scale(0.100000,-0.100000)"
fill="#000000" stroke="none">
<path d="M3735 5102 c-22 -11 -61 -42 -86 -68 -155 -164 -227 -392 -245 -780
-8 -161 1 -205 48 -253 43 -44 88 -62 154 -62 91 0 153 46 179 133 l11 38 159
-160 160 -161 -680 3 c-604 3 -695 1 -816 -15 -399 -52 -676 -173 -894 -392
-240 -241 -370 -606 -401 -1126 -7 -129 1 -169 44 -221 74 -88 220 -88 294 0
37 44 45 79 57 236 6 77 12 141 14 142 2 2 157 -151 346 -340 l344 -344 -69
-8 c-38 -4 -433 -8 -879 -9 -712 -1 -821 -3 -899 -18 -127 -24 -229 -53 -289
-83 -126 -63 -254 -178 -277 -248 -26 -79 11 -180 82 -224 81 -50 167 -37 255
38 31 27 82 61 112 75 l54 27 378 -378 c209 -209 379 -384 379 -390 0 -22 -61
-131 -100 -177 -65 -80 -76 -168 -28 -245 44 -71 145 -108 223 -82 73 24 177
147 234 275 73 164 118 400 123 650 2 116 -13 160 -72 207 -63 49 -179 55
-239 11 -36 -27 -71 -81 -71 -109 0 -13 -3 -24 -8 -24 -4 0 -77 70 -162 155
l-155 156 670 -3 c498 -2 697 0 775 10 424 52 710 172 930 392 238 238 366
609 402 1171 l12 186 -27 54 c-52 107 -160 142 -267 89 -81 -41 -96 -82 -104
-285 -4 -88 -9 -177 -13 -199 l-5 -39 -339 339 -339 339 32 9 c18 4 357 7 753
7 883 -2 1032 7 1250 80 165 55 326 173 361 264 55 146 -81 297 -232 256 -22
-6 -67 -32 -100 -58 -33 -27 -83 -59 -112 -72 l-53 -25 -381 381 -381 381 18
45 c9 25 41 76 71 113 81 102 93 183 39 265 -50 77 -160 109 -240 71z m-962
-2330 l509 -509 -15 -35 c-59 -142 -196 -282 -353 -361 l-51 -26 -511 512
-512 512 30 59 c71 139 182 251 325 324 33 17 62 31 65 32 3 0 234 -229 513
-508z"/>
</g>
</svg>
