<?xml version="1.0" standalone="no"?>
<!DOCTYPE svg PUBLIC "-//W3C//DTD SVG 20010904//EN"
 "http://www.w3.org/TR/2001/REC-SVG-20010904/DTD/svg10.dtd">
<svg version="1.0" xmlns="http://www.w3.org/2000/svg"
 width="512.000000pt" height="512.000000pt" viewBox="0 0 512.000000 512.000000"
 preserveAspectRatio="xMidYMid meet">
<metadata>
Created by potrace 1.16, written by Peter Selinger 2001-2019
</metadata>
<g transform="translate(0.000000,512.000000) scale(0.100000,-0.100000)"
fill="#000000" stroke="none">
<path d="M578 4370 c-52 -16 -98 -52 -126 -98 l-27 -47 0 -1665 0 -1665 28
-47 c18 -31 44 -57 75 -75 l47 -28 1985 0 c1829 0 1987 1 2015 17 39 21 82 64
103 103 16 28 17 164 17 1695 l0 1665 -28 47 c-18 31 -44 57 -75 75 l-47 28
-1970 2 c-1084 1 -1982 -2 -1997 -7z m721 -857 c24 -6 1102 -862 1131 -897 8
-10 15 -35 15 -56 0 -21 -7 -46 -15 -56 -8 -10 -262 -215 -563 -456 -576 -460
-568 -455 -630 -427 -29 13 -57 58 -57 92 0 14 11 38 24 54 13 15 238 199 500
408 261 209 475 382 475 385 0 3 -214 176 -475 385 -262 209 -487 393 -500
408 -34 41 -33 95 4 129 23 22 45 35 62 37 3 0 16 -2 29 -6z m2612 -1741 c53
-59 29 -140 -49 -162 -51 -14 -1273 -14 -1324 0 -46 13 -78 52 -78 95 0 36 31
82 64 95 11 5 322 8 689 7 l669 -2 29 -33z"/>
</g>
</svg>
