<?xml version="1.0" standalone="no"?>
<!DOCTYPE svg PUBLIC "-//W3C//DTD SVG 20010904//EN"
 "http://www.w3.org/TR/2001/REC-SVG-20010904/DTD/svg10.dtd">
<svg version="1.0" xmlns="http://www.w3.org/2000/svg"
 width="512.000000pt" height="512.000000pt" viewBox="0 0 512.000000 512.000000"
 preserveAspectRatio="xMidYMid meet">

<g transform="translate(0.000000,512.000000) scale(0.100000,-0.100000)"
fill="#000000" stroke="none">
<path d="M175 5101 c-22 -10 -52 -31 -67 -47 -59 -64 -58 -45 -58 -739 0 -622
0 -635 20 -655 33 -33 75 -30 108 6 l22 25 0 623 c0 591 1 624 18 639 17 15
61 17 429 17 l410 0 7 -72 c17 -172 72 -361 153 -523 72 -142 158 -260 285
-389 l118 -119 0 -398 0 -399 -57 0 c-75 0 -125 -14 -163 -47 -58 -48 -60 -60
-60 -318 0 -265 4 -284 68 -333 30 -23 48 -27 121 -32 l86 -5 3 -228 2 -227
-30 0 c-40 0 -70 -31 -70 -73 0 -40 23 -64 68 -73 l32 -6 0 -79 0 -79 -28 0
c-67 0 -98 -88 -46 -129 15 -12 37 -21 50 -21 23 0 24 -2 24 -89 l0 -89 -32
-13 c-89 -37 -202 -208 -229 -347 -33 -174 43 -328 199 -400 106 -49 248 -31
345 43 89 68 146 202 132 312 -19 155 -123 331 -230 389 l-35 19 0 87 c0 88 0
88 25 88 33 0 75 42 75 75 0 33 -42 75 -75 75 -25 0 -25 1 -25 79 l0 79 30 5
c66 14 92 83 47 125 -13 12 -35 22 -50 22 l-27 0 0 230 0 230 355 0 355 0 0
-230 0 -230 -30 0 c-88 0 -93 -129 -5 -146 l35 -6 0 -79 c0 -78 0 -79 -25 -79
-33 0 -75 -42 -75 -75 0 -33 42 -75 75 -75 25 0 25 0 25 -90 l0 -89 -35 -17
c-52 -24 -135 -120 -174 -199 -89 -184 -73 -353 44 -470 53 -53 101 -79 179
-95 75 -15 135 -7 212 31 149 71 223 239 180 409 -36 143 -138 294 -224 329
l-32 13 0 89 c0 87 1 89 24 89 13 0 35 9 50 21 52 41 20 129 -47 129 l-27 0 0
79 0 78 32 7 c45 9 68 33 68 73 0 42 -30 73 -70 73 l-30 0 0 230 0 230 360 0
360 0 0 -230 0 -230 -28 0 c-36 0 -72 -37 -72 -73 0 -33 31 -66 70 -74 l30 -5
0 -79 c0 -78 0 -79 -25 -79 -33 0 -75 -42 -75 -75 0 -33 42 -75 75 -75 25 0
25 0 25 -90 l0 -89 -34 -16 c-80 -38 -181 -183 -217 -310 -36 -127 -4 -268 80
-354 56 -58 105 -84 185 -101 75 -15 135 -7 213 31 144 69 216 222 184 391
-27 139 -140 310 -229 347 l-32 13 0 89 c0 87 1 89 24 89 13 0 35 9 50 21 52
41 21 129 -46 129 l-28 0 0 79 0 79 32 6 c45 9 68 33 68 73 0 42 -30 73 -70
73 l-30 0 2 228 3 227 86 5 c73 5 91 9 121 32 64 49 68 68 68 333 0 258 -2
270 -60 318 -38 33 -88 47 -162 47 l-58 0 0 399 0 398 118 119 c127 129 213
247 285 389 81 162 136 351 153 523 l7 72 412 0 c386 0 413 -1 428 -18 16 -17
17 -168 17 -1974 l0 -1955 21 -27 c26 -33 79 -36 109 -6 20 20 20 33 20 1990
0 1759 -2 1975 -16 2008 -20 49 -60 90 -109 113 -39 18 -124 19 -2385 19
-2261 0 -2346 -1 -2385 -19z m1445 -578 l0 -447 -36 35 c-51 49 -135 161 -193
257 -88 147 -159 361 -176 535 l-7 67 206 0 206 0 0 -447z m860 -188 l0 -635
-34 0 c-158 0 -454 101 -621 212 l-50 33 -3 513 -2 512 355 0 355 0 0 -635z
m870 125 l0 -510 -67 -44 c-99 -63 -181 -103 -296 -141 -106 -35 -251 -65
-318 -65 l-39 0 0 635 0 635 360 0 360 0 0 -510z m556 448 c-32 -287 -156
-565 -345 -768 l-60 -65 -1 448 0 447 206 0 207 0 -7 -62z m-1838 -1280 c108
-37 239 -66 337 -75 l75 -6 0 -238 0 -239 -355 0 -355 0 0 348 0 349 106 -54
c58 -30 144 -68 192 -85z m1282 -208 l0 -350 -360 0 -360 0 0 239 0 238 78 6
c173 14 340 63 515 152 67 34 123 62 125 63 1 1 2 -155 2 -348z m-1732 -717
l2 -213 -65 0 -65 0 0 209 c0 158 3 211 13 215 6 3 35 4 62 3 l50 -2 3 -212z
m862 2 l0 -215 -355 0 -355 0 0 215 0 215 355 0 355 0 0 -215z m870 0 l0 -215
-360 0 -360 0 0 215 0 215 360 0 360 0 0 -215z m264 209 c14 -5 16 -34 16
-215 l0 -209 -65 0 -65 0 0 208 c0 115 3 212 7 215 8 9 86 9 107 1z m-1831
-1863 c65 -72 115 -210 102 -281 -26 -141 -185 -213 -297 -135 -95 66 -112
177 -49 312 53 112 124 171 182 151 16 -5 43 -27 62 -47z m859 2 c20 -19 51
-67 69 -107 28 -59 34 -83 34 -143 0 -63 -3 -76 -30 -114 -102 -144 -317 -94
-350 82 -13 70 34 203 97 275 63 72 111 74 180 7z m870 0 c48 -46 99 -158 105
-232 9 -101 -43 -180 -140 -211 -103 -33 -220 45 -242 161 -14 74 45 227 112
291 58 56 100 54 165 -9z"/>
<path d="M70 3460 c-20 -20 -20 -33 -20 -1655 0 -1456 2 -1640 16 -1673 20
-49 60 -90 109 -113 39 -18 124 -19 2385 -19 2261 0 2346 1 2385 19 22 10 52
31 67 47 55 59 58 77 58 404 0 287 -1 301 -20 320 -30 30 -83 27 -109 -6 -20
-26 -21 -38 -21 -314 0 -265 -1 -288 -18 -303 -17 -16 -194 -17 -2344 -17
-2240 0 -2326 1 -2341 18 -16 17 -17 145 -17 1639 l0 1620 -21 27 c-26 33 -79
36 -109 6z"/>
</g>
</svg>
