<?xml version="1.0" standalone="no"?>
<!DOCTYPE svg PUBLIC "-//W3C//DTD SVG 20010904//EN"
 "http://www.w3.org/TR/2001/REC-SVG-20010904/DTD/svg10.dtd">
<svg version="1.0" xmlns="http://www.w3.org/2000/svg"
 width="512.000000pt" height="512.000000pt" viewBox="0 0 512.000000 512.000000"
 preserveAspectRatio="xMidYMid meet">

<g transform="translate(0.000000,512.000000) scale(0.100000,-0.100000)"
fill="#000000" stroke="none">
<path d="M2255 5110 c-492 -41 -885 -164 -1200 -375 -109 -74 -279 -235 -359
-342 -110 -147 -190 -317 -238 -508 -32 -130 -32 -372 1 -535 171 -848 811
-2179 1367 -2844 244 -292 459 -453 657 -494 71 -15 83 -15 155 0 197 41 412
202 656 494 556 665 1196 1996 1367 2844 33 163 33 405 1 535 -70 279 -195
492 -408 694 -129 121 -245 201 -419 286 -248 121 -488 188 -835 231 -141 18
-595 26 -745 14z m1121 -1304 l34 -34 0 -628 0 -629 -23 -37 c-48 -79 -132
-119 -265 -126 -182 -9 -316 58 -342 171 -32 145 117 255 334 246 l86 -4 0
418 c0 327 -3 417 -12 417 -7 -1 -197 -38 -423 -83 l-410 -83 -5 -564 c-5
-619 -3 -591 -67 -652 -94 -89 -317 -109 -452 -40 -70 35 -112 87 -118 146 -7
58 1 87 34 126 64 76 177 116 305 107 l77 -5 3 504 3 504 30 30 c30 29 47 33
570 139 297 60 555 109 574 110 25 1 41 -7 67 -33z"/>
</g>
</svg>
