<?xml version="1.0" standalone="no"?>
<!DOCTYPE svg PUBLIC "-//W3C//DTD SVG 20010904//EN"
 "http://www.w3.org/TR/2001/REC-SVG-20010904/DTD/svg10.dtd">
<svg version="1.0" xmlns="http://www.w3.org/2000/svg"
 width="512.000000pt" height="512.000000pt" viewBox="0 0 512.000000 512.000000"
 preserveAspectRatio="xMidYMid meet">

<g transform="translate(0.000000,512.000000) scale(0.100000,-0.100000)"
fill="#000000" stroke="none">
<path d="M4759 5104 c-59 -18 -128 -78 -159 -140 -49 -99 -24 -240 57 -315 82
-77 211 -97 307 -49 171 86 207 302 72 436 -77 77 -172 101 -277 68z"/>
<path d="M1753 5016 c-125 -41 -194 -135 -194 -263 0 -292 393 -374 517 -109
61 131 0 298 -132 357 -56 25 -139 32 -191 15z"/>
<path d="M4142 4267 l-382 -382 63 -63 62 -62 383 383 382 382 -63 63 -62 62
-383 -383z"/>
<path d="M2138 4558 c-25 -35 -48 -68 -51 -75 -9 -14 1122 -790 1132 -776 67
97 91 133 90 140 0 6 -1063 737 -1114 766 -9 5 -27 -13 -57 -55z"/>
<path d="M1050 4148 c-245 -231 -474 -447 -508 -480 l-64 -59 59 -62 c32 -34
61 -63 64 -65 7 -3 1019 947 1019 957 0 3 -28 34 -62 68 l-63 61 -445 -420z"/>
<path d="M3479 3824 c-59 -18 -128 -78 -159 -140 -49 -99 -24 -240 57 -315 82
-77 211 -97 307 -49 171 86 207 302 72 436 -77 77 -172 101 -277 68z"/>
<path d="M227 3559 c-164 -25 -267 -204 -208 -360 71 -187 310 -239 450 -98
103 104 101 278 -3 382 -65 65 -143 90 -239 76z"/>
<path d="M3920 2924 c-40 -14 -60 -29 -69 -53 -8 -18 -10 -440 -9 -1423 l3
-1397 23 -23 23 -23 589 0 589 0 23 23 23 23 3 1397 c1 953 -1 1405 -8 1422
-23 56 -8 55 -615 57 -308 1 -567 -1 -575 -3z"/>
<path d="M49 2455 c-14 -8 -31 -27 -38 -42 -8 -21 -11 -331 -9 -1195 l3 -1167
23 -23 23 -23 589 0 589 0 23 23 23 23 3 1167 c2 865 -1 1174 -9 1195 -24 58
-16 57 -631 57 -467 -1 -567 -3 -589 -15z"/>
<path d="M1953 1986 l-28 -24 0 -956 0 -955 23 -23 23 -23 589 0 589 0 23 23
23 23 0 955 0 956 -28 24 -28 24 -579 0 -579 0 -28 -24z"/>
</g>
</svg>
