<?xml version="1.0" standalone="no"?>
<!DOCTYPE svg PUBLIC "-//W3C//DTD SVG 20010904//EN"
 "http://www.w3.org/TR/2001/REC-SVG-20010904/DTD/svg10.dtd">
<svg version="1.0" xmlns="http://www.w3.org/2000/svg"
 width="512.000000pt" height="512.000000pt" viewBox="0 0 512.000000 512.000000"
 preserveAspectRatio="xMidYMid meet">

<g transform="translate(0.000000,512.000000) scale(0.100000,-0.100000)"
fill="#000000" stroke="none">
<path d="M2240 4321 l0 -240 -597 -3 c-576 -4 -601 -5 -674 -25 -381 -107
-650 -398 -715 -774 -13 -74 -14 -192 -12 -761 4 -653 4 -675 25 -749 100
-355 351 -606 702 -701 64 -18 114 -22 314 -26 l237 -4 0 320 0 320 -197 4
c-189 3 -200 4 -253 29 -70 33 -126 89 -159 159 l-26 55 0 635 0 635 26 55
c33 70 89 126 159 159 l55 26 557 3 558 3 2 -240 3 -239 505 394 c278 216 505
398 505 403 0 5 -200 166 -445 357 -245 190 -473 369 -507 396 l-63 50 0 -241z"/>
<path d="M3600 3761 l0 -319 203 -4 c185 -3 206 -5 247 -26 71 -35 114 -75
151 -144 l34 -63 0 -645 0 -645 -27 -51 c-40 -76 -70 -107 -140 -145 l-63 -34
-562 -3 -563 -3 -2 239 -3 238 -505 -394 c-278 -217 -505 -398 -505 -402 0 -4
227 -185 505 -402 l505 -394 3 238 2 238 559 0 c450 0 575 3 644 15 379 66
685 356 774 735 16 68 18 139 18 770 0 631 -2 702 -18 770 -89 379 -395 669
-774 735 -57 10 -153 15 -284 15 l-199 0 0 -319z"/>
</g>
</svg>
