<?xml version="1.0" standalone="no"?>
<!DOCTYPE svg PUBLIC "-//W3C//DTD SVG 20010904//EN"
 "http://www.w3.org/TR/2001/REC-SVG-20010904/DTD/svg10.dtd">
<svg version="1.0" xmlns="http://www.w3.org/2000/svg"
 width="512.000000pt" height="512.000000pt" viewBox="0 0 512.000000 512.000000"
 preserveAspectRatio="xMidYMid meet">

<g transform="translate(0.000000,512.000000) scale(0.100000,-0.100000)"
fill="#000000" stroke="none">
<path d="M1495 5106 c-102 -33 -184 -101 -225 -188 -13 -27 -141 -647 -349
-1685 l-328 -1643 738 0 739 0 0 425 0 425 -95 0 c-111 0 -151 13 -188 61 -38
50 -44 99 -18 152 33 68 76 87 200 87 l101 0 0 139 0 139 -109 4 c-118 3 -141
12 -185 71 -27 37 -27 117 0 155 45 60 77 72 190 72 l104 0 0 140 0 140 -104
0 c-113 0 -145 12 -190 72 -27 38 -27 118 0 155 44 59 67 68 185 71 l109 4 0
138 0 138 -112 4 c-130 4 -153 14 -189 85 -29 60 -19 113 30 162 21 21 52 41
71 44 18 4 182 7 364 7 303 0 335 -2 373 -19 99 -45 117 -164 38 -241 l-36
-35 -117 -5 -117 -5 -3 -137 -3 -136 115 -4 c127 -3 153 -14 190 -78 25 -42
24 -114 -1 -148 -43 -58 -67 -67 -186 -72 l-112 -5 -3 -137 -3 -136 115 -4
c123 -3 145 -12 189 -70 25 -34 26 -106 1 -148 -37 -64 -63 -75 -190 -78
l-115 -4 3 -136 3 -137 112 -5 c120 -5 143 -14 187 -73 41 -55 18 -153 -46
-199 -29 -20 -47 -23 -145 -27 l-113 -3 0 -424 0 -424 89 0 89 0 773 927 c424
511 774 930 776 932 2 3 19 -1 38 -7 90 -33 199 -21 275 30 54 37 191 198 218
258 36 78 35 173 -2 257 l-28 62 83 101 c95 114 97 118 98 180 1 60 -28 106
-82 130 -87 40 -134 17 -246 -119 -69 -84 -88 -101 -105 -96 -120 34 -199 28
-282 -20 -62 -36 -208 -213 -235 -284 -28 -74 -22 -169 14 -243 31 -61 50 -27
-158 -277 -82 -99 -153 -177 -156 -173 -3 4 -77 365 -164 802 -87 437 -167
818 -177 847 -27 74 -95 145 -176 185 l-67 33 -705 2 c-550 1 -714 -1 -745
-11z"/>
<path d="M3319 2048 c-193 -233 -359 -431 -367 -440 -14 -17 8 -18 445 -18
l460 0 -87 435 c-48 240 -90 438 -93 441 -3 3 -164 -185 -358 -418z"/>
<path d="M535 1280 c-13 -21 -195 -958 -195 -1005 0 -107 46 -186 140 -239
l55 -31 1685 0 1685 0 59 29 c91 45 144 130 145 236 1 50 -179 986 -194 1010
-8 14 -3372 14 -3380 0z"/>
</g>
</svg>
