<?xml version="1.0" standalone="no"?>
<!DOCTYPE svg PUBLIC "-//W3C//DTD SVG 20010904//EN"
 "http://www.w3.org/TR/2001/REC-SVG-20010904/DTD/svg10.dtd">
<svg version="1.0" xmlns="http://www.w3.org/2000/svg"
 width="512.000000pt" height="512.000000pt" viewBox="0 0 512.000000 512.000000"
 preserveAspectRatio="xMidYMid meet">

<g transform="translate(0.000000,512.000000) scale(0.100000,-0.100000)"
fill="#000000" stroke="none">
<path d="M2490 5099 c-51 -30 -338 -318 -361 -361 -24 -48 -24 -89 1 -138 23
-45 80 -80 130 -80 37 0 85 23 123 58 l27 26 0 -206 0 -205 -72 -12 c-164 -27
-367 -116 -511 -225 -41 -31 -114 -97 -161 -147 l-87 -91 -170 97 c-93 54
-172 102 -175 106 -3 5 3 9 13 9 38 1 100 38 123 74 18 30 22 47 18 92 -4 47
-10 61 -40 91 -58 57 -92 56 -355 -16 -122 -33 -232 -66 -243 -73 -34 -21 -62
-75 -62 -121 0 -50 106 -449 131 -492 52 -91 195 -91 251 1 20 31 22 45 17
104 l-6 68 171 -98 c93 -54 172 -100 174 -102 2 -3 -10 -44 -26 -92 -36 -105
-60 -235 -60 -322 l0 -64 471 0 471 0 -6 23 c-4 12 -9 54 -13 92 -15 177 87
355 247 433 83 40 175 55 300 50 80 -3 105 -8 127 -24 90 -68 95 -186 10 -248
-24 -18 -48 -22 -157 -26 -109 -5 -134 -9 -157 -26 -93 -70 -95 -190 -4 -251
l34 -23 558 0 559 0 0 64 c0 87 -24 214 -60 320 -16 49 -28 91 -26 94 3 2 81
48 175 101 l170 98 -6 -68 c-5 -58 -3 -72 17 -103 12 -20 36 -44 53 -53 66
-34 160 -12 196 47 25 41 135 457 133 503 -1 49 -34 101 -75 120 -17 9 -126
41 -242 72 -250 67 -286 69 -343 12 -30 -30 -36 -44 -40 -91 -4 -45 0 -62 18
-92 23 -36 85 -73 123 -74 10 0 16 -4 12 -9 -4 -8 -307 -187 -337 -199 -4 -2
-46 37 -94 87 -47 50 -120 116 -161 147 -144 108 -342 195 -510 225 l-73 12 0
205 0 206 28 -26 c37 -35 85 -58 122 -58 50 0 107 35 130 80 25 49 25 90 1
138 -24 45 -324 344 -368 366 -44 22 -91 20 -133 -5z"/>
<path d="M1123 2660 c-63 -28 -83 -68 -83 -163 0 -76 -4 -90 -150 -486 -160
-436 -168 -467 -130 -528 30 -50 72 -66 183 -71 l97 -4 0 -422 c0 -405 1 -422
20 -454 12 -19 38 -41 63 -52 38 -18 67 -20 314 -20 l272 0 3 -183 c3 -170 5
-184 25 -213 48 -67 4 -64 915 -64 782 0 825 1 858 19 19 10 44 30 55 45 19
27 20 44 25 584 5 503 7 561 23 602 24 61 130 261 207 390 187 315 247 498
256 780 5 145 4 157 -15 188 -12 19 -40 42 -64 52 -41 19 -83 20 -1437 20
-1354 0 -1396 -1 -1437 -20z"/>
</g>
</svg>
