<?xml version="1.0" standalone="no"?>
<!DOCTYPE svg PUBLIC "-//W3C//DTD SVG 20010904//EN"
 "http://www.w3.org/TR/2001/REC-SVG-20010904/DTD/svg10.dtd">
<svg version="1.0" xmlns="http://www.w3.org/2000/svg"
 width="512.000000pt" height="512.000000pt" viewBox="0 0 512.000000 512.000000"
 preserveAspectRatio="xMidYMid meet">

<g transform="translate(0.000000,512.000000) scale(0.100000,-0.100000)"
fill="#000000" stroke="none">
<path d="M402 4460 c-33 -15 -47 -29 -62 -62 -18 -40 -20 -68 -20 -398 0 -330
2 -358 20 -398 15 -33 29 -47 62 -62 42 -19 78 -20 1438 -20 1360 0 1396 1
1438 20 33 15 47 29 62 62 18 40 20 68 20 398 0 330 -2 358 -20 398 -15 33
-29 47 -62 62 -42 19 -78 20 -1438 20 -1360 0 -1396 -1 -1438 -20z"/>
<path d="M3763 4461 c-85 -39 -77 82 -83 -1398 l-5 -1313 -45 31 c-68 46 -147
84 -225 109 -98 32 -340 40 -470 15 -186 -34 -339 -118 -473 -259 -91 -97
-157 -214 -194 -342 -67 -238 8 -513 194 -710 173 -182 353 -261 618 -271 291
-11 489 64 680 256 77 77 105 113 142 186 26 50 57 124 70 165 l23 75 3 1383
c1 760 4 1382 5 1382 5 0 222 -84 354 -136 l123 -49 0 -50 c0 -28 9 -69 20
-93 49 -108 231 -108 280 0 29 64 29 254 0 314 -24 49 -1 37 -350 183 -146 62
-282 123 -303 137 -71 47 -127 153 -127 243 0 20 -9 55 -20 79 -33 74 -130
102 -217 63z"/>
<path d="M402 3020 c-33 -15 -47 -29 -62 -62 -18 -40 -20 -68 -20 -398 0 -330
2 -358 20 -398 15 -33 29 -47 62 -62 42 -19 78 -20 1438 -20 1360 0 1396 1
1438 20 33 15 47 29 62 62 18 40 20 68 20 398 0 330 -2 358 -20 398 -15 33
-29 47 -62 62 -42 19 -78 20 -1438 20 -1360 0 -1396 -1 -1438 -20z"/>
<path d="M402 1580 c-33 -15 -47 -29 -62 -62 -18 -40 -20 -68 -20 -398 0 -330
2 -358 20 -398 15 -33 29 -47 62 -62 41 -19 71 -20 718 -20 647 0 677 1 718
20 33 15 47 29 62 62 18 40 20 68 20 398 0 330 -2 358 -20 398 -15 33 -29 47
-62 62 -41 19 -71 20 -718 20 -647 0 -677 -1 -718 -20z"/>
</g>
</svg>
