<?xml version="1.0" standalone="no"?>
<!DOCTYPE svg PUBLIC "-//W3C//DTD SVG 20010904//EN"
 "http://www.w3.org/TR/2001/REC-SVG-20010904/DTD/svg10.dtd">
<svg version="1.0" xmlns="http://www.w3.org/2000/svg"
 width="512.000000pt" height="512.000000pt" viewBox="0 0 512.000000 512.000000"
 preserveAspectRatio="xMidYMid meet">

<g transform="translate(0.000000,512.000000) scale(0.100000,-0.100000)"
fill="#000000" stroke="none">
<path d="M78 5099 c-23 -12 -46 -35 -58 -59 -20 -39 -20 -54 -20 -2480 0
-2427 0 -2441 20 -2480 13 -26 34 -47 60 -60 39 -20 53 -20 2480 -20 2427 0
2441 0 2480 20 26 13 47 34 60 60 20 39 20 54 20 2083 l0 2043 -29 45 c-38 58
-816 832 -858 853 -27 14 -76 16 -328 16 l-295 0 0 -740 c0 -723 0 -742 -20
-780 -13 -26 -34 -47 -60 -60 -39 -20 -56 -20 -1270 -20 -1214 0 -1231 0
-1270 20 -26 13 -47 34 -60 60 -20 38 -20 57 -20 780 l0 740 -397 0 c-376 -1
-400 -2 -435 -21z m3832 -3749 l0 -1050 -1350 0 -1350 0 0 1050 0 1050 1350 0
1350 0 0 -1050z"/>
<path d="M1588 2079 c-43 -22 -78 -81 -78 -129 0 -50 35 -107 80 -130 38 -20
57 -20 970 -20 913 0 932 0 970 20 45 23 80 80 80 130 0 50 -35 107 -80 130
-38 20 -56 20 -972 20 -909 -1 -934 -1 -970 -21z"/>
<path d="M1588 1479 c-43 -22 -78 -81 -78 -129 0 -50 35 -107 80 -130 38 -20
57 -20 970 -20 913 0 932 0 970 20 45 23 80 80 80 130 0 50 -35 107 -80 130
-38 20 -56 20 -972 20 -909 -1 -934 -1 -970 -21z"/>
<path d="M1588 879 c-43 -22 -78 -81 -78 -129 0 -50 35 -107 80 -130 38 -20
57 -20 970 -20 913 0 932 0 970 20 45 23 80 80 80 130 0 50 -35 107 -80 130
-38 20 -56 20 -972 20 -909 -1 -934 -1 -970 -21z"/>
<path d="M1210 4470 l0 -650 1050 0 1050 0 0 650 0 650 -1050 0 -1050 0 0
-650z"/>
</g>
</svg>
