<?xml version="1.0" standalone="no"?>
<!DOCTYPE svg PUBLIC "-//W3C//DTD SVG 20010904//EN"
 "http://www.w3.org/TR/2001/REC-SVG-20010904/DTD/svg10.dtd">
<svg version="1.0" xmlns="http://www.w3.org/2000/svg"
 width="512.000000pt" height="512.000000pt" viewBox="0 0 512.000000 512.000000"
 preserveAspectRatio="xMidYMid meet">

<g transform="translate(0.000000,512.000000) scale(0.100000,-0.100000)"
fill="#000000" stroke="none">
<path d="M78 5099 c-23 -12 -46 -35 -58 -59 -20 -39 -21 -55 -18 -405 3 -350
4 -365 24 -392 45 -62 53 -63 449 -63 342 0 362 1 393 20 59 36 72 71 72 193
l0 107 297 0 298 0 197 -197 198 -198 0 210 0 210 -127 127 c-71 70 -141 132
-156 138 -18 6 -155 10 -368 10 l-339 0 0 109 c0 96 -3 112 -23 142 -45 68
-51 69 -447 69 -334 -1 -357 -2 -392 -21z"/>
<path d="M4260 5102 c-19 -9 -45 -32 -57 -51 -20 -30 -23 -46 -23 -142 l0
-109 -339 0 c-213 0 -350 -4 -368 -10 -15 -6 -85 -68 -155 -138 l-128 -127 0
-210 0 -210 198 198 197 197 298 0 297 0 0 -107 c0 -122 13 -157 72 -193 31
-19 51 -20 391 -20 395 0 405 1 448 61 l24 34 3 362 c3 349 2 364 -18 403 -13
26 -34 47 -60 60 -37 19 -58 20 -392 20 -316 0 -357 -2 -388 -18z"/>
<path d="M2310 4617 c-84 -44 -80 -13 -80 -685 0 -657 2 -637 -66 -688 -37
-29 -40 -29 -196 -34 l-158 -5 375 -375 375 -375 375 375 375 375 -158 5
c-156 5 -159 5 -196 34 -68 51 -66 31 -66 688 0 674 4 642 -80 686 -42 21 -56
22 -251 22 -195 0 -208 -1 -249 -23z"/>
<path d="M69 3808 c-69 -47 -70 -50 -67 -455 3 -347 4 -363 24 -389 11 -15 33
-37 48 -48 26 -20 42 -21 384 -24 355 -3 357 -2 401 20 66 34 81 70 81 195 l0
103 216 0 216 0 -36 40 c-41 46 -50 74 -43 136 3 34 13 55 38 80 18 19 40 35
48 36 9 1 -85 5 -209 8 l-225 5 -5 110 c-5 115 -11 134 -55 175 l-27 25 -377
3 -377 3 -35 -23z"/>
<path d="M4270 3823 c-20 -7 -59 -44 -73 -68 -7 -11 -14 -69 -17 -130 l-5
-110 -225 -5 c-124 -3 -218 -7 -209 -8 8 -1 30 -17 48 -36 25 -25 35 -46 38
-80 7 -62 -2 -90 -43 -136 l-36 -40 216 0 216 0 0 -103 c0 -125 15 -161 81
-195 44 -22 46 -23 401 -20 342 3 358 4 384 24 15 11 37 33 48 48 20 26 21 42
24 389 3 404 2 408 -67 454 -34 23 -35 23 -400 22 -201 0 -373 -3 -381 -6z"/>
<path d="M1252 2953 c-42 -20 -41 -19 -222 -333 -165 -285 -180 -324 -147
-386 8 -16 86 -90 172 -164 l156 -135 0 -178 0 -179 -151 -130 c-83 -71 -160
-144 -171 -161 -41 -68 -33 -90 137 -388 94 -165 171 -289 194 -311 64 -62 82
-61 313 20 l201 71 86 -55 c47 -30 114 -69 150 -86 36 -17 66 -31 67 -32 1 -1
20 -95 42 -209 43 -223 54 -252 115 -281 29 -14 80 -16 366 -16 286 0 337 2
366 16 61 29 72 58 115 281 22 114 41 208 42 209 1 1 31 15 67 32 36 17 104
56 151 86 l85 56 202 -71 c230 -82 248 -83 312 -21 23 22 100 146 194 311 170
298 178 320 137 388 -11 17 -88 90 -171 161 l-151 130 0 178 0 179 160 137
c171 147 189 172 178 248 -7 51 -322 595 -360 622 -57 40 -96 35 -300 -37
-104 -37 -195 -68 -204 -69 -8 -1 -117 -105 -243 -231 l-228 -228 59 -39 c123
-83 221 -219 270 -378 30 -96 33 -279 5 -380 -68 -253 -260 -448 -503 -511
-106 -27 -260 -27 -366 0 -242 63 -436 258 -502 506 -76 286 37 602 271 759
l63 42 -229 229 c-126 126 -235 230 -242 231 -7 1 -98 31 -202 68 -103 36
-202 66 -220 66 -17 0 -46 -8 -64 -17z"/>
<path d="M2468 2160 c-116 -29 -236 -129 -286 -237 -23 -51 -26 -71 -26 -163
-1 -103 0 -108 37 -182 153 -310 593 -308 738 5 31 67 33 79 33 172 0 114 -14
160 -71 243 -44 64 -113 117 -190 144 -66 23 -181 32 -235 18z"/>
</g>
</svg>
