<?xml version="1.0" standalone="no"?>
<!DOCTYPE svg PUBLIC "-//W3C//DTD SVG 20010904//EN"
 "http://www.w3.org/TR/2001/REC-SVG-20010904/DTD/svg10.dtd">
<svg version="1.0" xmlns="http://www.w3.org/2000/svg"
 width="512.000000pt" height="512.000000pt" viewBox="0 0 512.000000 512.000000"
 preserveAspectRatio="xMidYMid meet">
<metadata>
Created by potrace 1.16, written by Peter Selinger 2001-2019
</metadata>
<g transform="translate(0.000000,512.000000) scale(0.100000,-0.100000)"
fill="#000000" stroke="none">
<path d="M420 5099 c-61 -28 -371 -338 -399 -399 -28 -61 -28 -165 -1 -223 13
-26 82 -104 188 -210 l167 -167 323 323 322 322 -172 172 c-112 111 -187 177
-212 187 -55 23 -160 21 -216 -5z"/>
<path d="M3861 5105 c-424 -92 -736 -405 -823 -825 -27 -128 -21 -354 12 -479
l22 -84 -153 -153 -154 -154 323 -322 322 -323 154 154 153 153 84 -22 c125
-33 351 -39 479 -12 391 81 694 362 806 747 49 168 43 491 -12 596 -28 56 -99
86 -171 73 -33 -6 -71 -40 -293 -260 l-256 -254 -207 208 -207 207 236 235
c129 129 245 248 257 265 47 65 20 182 -52 219 -84 44 -380 61 -520 31z"/>
<path d="M902 4217 l-322 -322 110 -110 110 -110 323 323 322 322 -110 110
-110 110 -323 -323z"/>
<path d="M1325 3790 l-320 -320 1383 -1383 1382 -1382 322 323 323 322 -1380
1380 c-759 759 -1382 1380 -1385 1380 -3 0 -149 -144 -325 -320z"/>
<path d="M1554 2199 l-151 -151 -84 22 c-125 33 -350 39 -479 12 -391 -81
-694 -362 -806 -747 -49 -168 -43 -491 12 -596 37 -72 154 -100 219 -52 17 12
136 128 265 257 l235 236 207 -207 208 -207 -254 -256 c-220 -222 -254 -260
-260 -293 -13 -72 17 -143 73 -171 105 -55 427 -61 596 -12 384 112 666 415
747 806 27 128 21 354 -12 479 l-22 84 153 153 154 154 -320 320 c-176 176
-322 320 -325 320 -3 0 -73 -68 -156 -151z"/>
<path d="M4290 825 c-235 -235 -292 -297 -280 -305 8 -5 216 -125 461 -265
432 -246 448 -255 500 -255 94 0 149 55 149 149 0 52 -9 68 -262 512 -144 253
-265 459 -268 459 -3 0 -138 -133 -300 -295z"/>
</g>
</svg>
