<?xml version="1.0" standalone="no"?>
<!DOCTYPE svg PUBLIC "-//W3C//DTD SVG 20010904//EN"
 "http://www.w3.org/TR/2001/REC-SVG-20010904/DTD/svg10.dtd">
<svg version="1.0" xmlns="http://www.w3.org/2000/svg"
 width="512.000000pt" height="512.000000pt" viewBox="0 0 512.000000 512.000000"
 preserveAspectRatio="xMidYMid meet">

<g transform="translate(0.000000,512.000000) scale(0.100000,-0.100000)"
fill="#000000" stroke="none">
<path d="M2185 4935 c-24 -23 -25 -29 -25 -154 0 -122 1 -132 23 -157 21 -24
33 -28 113 -35 49 -4 168 -8 264 -8 96 0 215 4 264 8 80 7 92 11 113 35 22 25
23 35 23 157 0 125 -1 131 -25 154 l-24 25 -351 0 -351 0 -24 -25z"/>
<path d="M1364 4711 c-46 -21 -106 -79 -124 -119 -7 -16 -40 -45 -83 -72 -193
-120 -402 -301 -496 -429 -104 -141 -147 -269 -137 -404 5 -77 5 -79 -30 -130
-134 -194 -197 -392 -198 -622 0 -132 14 -232 50 -343 13 -40 24 -77 24 -83 0
-6 -15 -29 -34 -52 -53 -65 -112 -183 -140 -279 -52 -181 -42 -356 30 -525
l36 -83 -35 -97 c-19 -54 -40 -133 -47 -175 -18 -109 -8 -311 19 -412 82 -299
339 -546 658 -633 293 -79 567 9 810 260 201 208 343 490 421 838 l29 126 141
141 c78 77 144 152 147 165 11 42 -3 65 -78 124 -95 74 -239 221 -271 275 -42
72 -56 148 -56 301 0 133 -1 139 -25 162 -30 31 -51 31 -156 0 -170 -52 -315
-76 -484 -82 -244 -8 -350 22 -456 127 -115 115 -121 265 -16 463 22 42 44 77
48 77 4 0 29 -9 55 -20 65 -28 250 -76 364 -95 141 -23 380 -44 510 -46 112
-1 115 -1 137 25 22 26 23 34 23 217 0 188 0 190 -25 214 -13 14 -32 25 -42
25 -137 0 -619 67 -768 107 -60 16 -155 58 -155 69 0 47 155 200 335 329 113
81 105 79 161 39 65 -47 181 -104 210 -104 37 0 71 40 89 105 9 33 32 112 52
177 23 74 33 125 29 141 -4 17 -26 38 -66 62 -32 20 -79 59 -102 87 -83 99
-132 143 -174 156 -59 17 -132 15 -180 -7z m-573 -2597 c281 -115 649 -126
1032 -29 73 18 134 31 137 28 7 -7 -200 -203 -281 -266 -114 -87 -229 -151
-326 -183 -78 -26 -102 -29 -208 -28 -103 0 -131 4 -198 27 -130 45 -200 101
-246 197 -20 42 -26 70 -25 121 0 63 26 159 43 159 4 0 36 -12 72 -26z m9
-970 c160 -61 339 -84 503 -64 55 6 101 9 104 6 17 -17 -122 -214 -190 -270
-225 -184 -483 -24 -533 328 -6 46 -5 49 12 41 11 -4 57 -23 104 -41z"/>
<path d="M3570 4717 c-35 -11 -90 -62 -168 -155 -24 -28 -70 -68 -103 -88 -37
-23 -62 -46 -65 -61 -4 -14 14 -92 46 -201 70 -237 85 -250 207 -193 34 17 89
48 122 70 l59 40 95 -67 c170 -120 298 -239 337 -311 11 -22 10 -26 -11 -42
-71 -54 -394 -115 -784 -150 -195 -17 -185 -4 -185 -248 0 -185 1 -191 23
-217 23 -27 26 -27 128 -26 140 3 326 19 487 43 136 21 359 77 411 104 17 8
34 15 39 15 13 0 88 -148 106 -209 21 -71 20 -165 -1 -227 -21 -61 -107 -150
-177 -183 -165 -77 -466 -68 -803 25 -69 19 -134 34 -144 34 -11 0 -31 -11
-44 -25 -24 -23 -25 -29 -25 -162 0 -153 -14 -229 -56 -301 -32 -54 -176 -201
-271 -276 -74 -57 -91 -86 -78 -127 4 -12 71 -85 148 -162 l140 -140 29 -126
c77 -345 219 -629 416 -833 256 -266 532 -350 847 -257 252 75 471 264 580
503 48 105 66 187 72 329 7 154 -6 245 -54 380 l-35 98 28 62 c89 199 94 409
13 617 -24 64 -89 174 -143 245 -6 8 0 43 17 96 47 152 63 292 48 434 -20 191
-74 344 -175 500 l-56 85 6 73 c15 174 -62 340 -246 531 -87 90 -258 226 -387
306 -39 25 -76 56 -82 68 -41 87 -128 143 -220 141 -31 -1 -72 -6 -91 -12z
m856 -2624 c26 -67 24 -165 -4 -229 -28 -62 -100 -134 -167 -167 -96 -48 -161
-62 -290 -62 -108 0 -128 3 -205 31 -158 56 -321 168 -500 341 -57 56 -102
104 -99 107 2 3 54 -8 114 -24 177 -45 289 -61 470 -67 241 -8 410 18 575 88
36 15 70 28 77 28 6 1 19 -20 29 -46z m14 -917 c0 -44 -35 -170 -64 -231 -41
-86 -100 -149 -173 -182 -132 -60 -268 -9 -386 145 -50 65 -112 170 -104 178
3 3 53 0 112 -7 176 -20 389 13 546 85 65 29 69 30 69 12z"/>
<path d="M2125 4422 c-63 -41 -75 -64 -141 -283 -35 -118 -64 -230 -64 -249 0
-45 30 -108 66 -142 44 -41 461 -286 508 -299 57 -15 134 -6 193 25 85 42 416
247 447 275 36 33 66 96 66 141 0 19 -29 131 -65 249 -67 225 -82 253 -150
288 -30 16 -82 15 -255 -7 -96 -12 -244 -12 -340 0 -175 22 -233 23 -265 2z"/>
<path d="M2213 3380 c-55 -22 -54 -15 -51 -561 l3 -504 27 -45 c37 -64 215
-235 269 -260 58 -26 140 -26 198 0 54 25 232 196 269 260 l27 45 3 504 c3
551 4 539 -55 562 -22 8 -40 3 -118 -36 -168 -85 -282 -85 -449 -1 -50 25 -93
46 -96 45 -3 0 -15 -4 -27 -9z"/>
<path d="M2393 1528 l-130 -133 -12 -91 c-6 -50 -11 -113 -11 -141 0 -49 -1
-51 -32 -57 -50 -9 -93 -40 -111 -79 -25 -51 -25 -452 -1 -503 21 -43 55 -71
105 -84 l39 -11 0 -110 c0 -103 1 -111 25 -134 l24 -25 271 0 271 0 24 25 c24
23 25 31 25 134 l0 110 39 11 c50 13 84 41 105 84 24 51 24 452 -1 503 -18 39
-61 70 -109 79 l-31 6 -7 106 c-10 173 -8 168 -153 314 -171 171 -156 172
-330 -4z m327 -408 l0 -48 -80 -7 c-44 -4 -116 -4 -160 0 l-80 7 0 48 0 48
160 0 160 0 0 -48z m0 -757 l0 -43 -160 0 -160 0 0 43 0 42 160 0 160 0 0 -42z"/>
</g>
</svg>
